<?xml version="1.0" encoding="UTF-8" standalone="no"?>
<!DOCTYPE svg PUBLIC "-//W3C//DTD SVG 1.1//EN" "http://www.w3.org/Graphics/SVG/1.1/DTD/svg11.dtd">
<svg version="1.1" xmlns="http://www.w3.org/2000/svg" xmlns:xlink="http://www.w3.org/1999/xlink" preserveAspectRatio="xMidYMid meet" viewBox="0 0 640 640" width="60" height="60"><defs><path d="M340.42 20.7L349.03 21.56L357.54 22.76L365.94 24.28L374.22 26.12L382.37 28.28L390.39 30.74L398.27 33.5L406.01 36.56L413.59 39.9L421.02 43.52L428.28 47.41L435.36 51.57L442.27 55.99L448.99 60.66L455.51 65.57L461.84 70.72L467.96 76.11L473.86 81.72L479.55 87.55L485 93.59L490.22 99.83L495.2 106.27L499.93 112.9L504.4 119.72L508.62 126.72L512.56 133.88L516.23 141.21L519.61 148.7L522.71 156.34L525.5 164.12L528 172.03L530.18 180.08L532.05 188.25L533.59 196.54L534.8 204.94L535.68 213.44L536.21 222.03L536.39 230.72L536.21 239.41L535.68 248.02L534.8 256.58L533.59 265.08L532.05 273.53L530.18 281.96L528 290.36L525.5 298.74L522.71 307.13L519.61 315.51L516.23 323.92L512.56 332.35L508.62 340.82L504.4 349.33L499.93 357.89L495.2 366.53L490.22 375.23L485 384.02L479.55 392.91L473.86 401.9L467.96 411.01L461.84 420.24L455.51 429.6L448.99 439.11L442.27 448.78L435.36 458.6L428.28 468.6L421.02 478.78L413.59 489.16L406.01 499.74L398.27 510.54L390.39 521.55L382.37 532.8L374.22 544.29L365.94 556.04L357.54 568.04L349.03 580.32L340.42 592.88L331.71 605.73L322.92 618.89L314.12 605.73L305.41 592.88L296.8 580.32L288.29 568.04L279.89 556.04L271.62 544.29L263.46 532.8L255.44 521.55L247.56 510.54L239.82 499.74L232.24 489.16L224.81 478.78L217.55 468.6L210.47 458.6L203.56 448.78L196.84 439.11L190.32 429.6L183.99 420.24L177.87 411.01L171.97 401.9L166.29 392.91L160.83 384.02L155.61 375.23L150.63 366.53L145.9 357.89L141.43 349.33L137.21 340.82L133.27 332.35L129.6 323.92L126.22 315.51L123.13 307.13L120.33 298.74L117.83 290.36L115.65 281.96L113.78 273.53L112.24 265.08L111.03 256.58L110.15 248.02L109.62 239.41L109.44 230.72L109.62 222.03L110.15 213.44L111.03 204.94L112.24 196.54L113.78 188.25L115.65 180.08L117.83 172.03L120.33 164.12L123.13 156.34L126.22 148.7L129.6 141.21L133.27 133.88L137.21 126.72L141.43 119.72L145.9 112.9L150.63 106.27L155.61 99.83L160.83 93.59L166.29 87.55L171.97 81.72L177.87 76.11L183.99 70.72L190.32 65.57L196.84 60.66L203.56 55.99L210.47 51.57L217.55 47.41L224.81 43.52L232.24 39.9L239.82 36.56L247.56 33.5L255.44 30.74L263.46 28.28L271.62 26.12L279.89 24.28L288.29 22.76L296.8 21.56L305.41 20.7L314.12 20.18L322.92 20L331.71 20.18L340.42 20.7ZM314.62 120.15L310.54 120.55L306.51 121.12L302.54 121.84L298.62 122.72L294.75 123.74L290.95 124.9L287.22 126.21L283.56 127.66L279.96 129.24L276.45 130.96L273.01 132.8L269.65 134.77L266.38 136.86L263.2 139.07L260.11 141.4L257.11 143.84L254.21 146.39L251.41 149.05L248.72 151.81L246.14 154.67L243.67 157.63L241.31 160.68L239.07 163.82L236.95 167.05L234.95 170.36L233.08 173.76L231.35 177.23L229.74 180.78L228.28 184.39L226.95 188.08L225.77 191.83L224.74 195.64L223.85 199.51L223.12 203.44L222.55 207.42L222.13 211.44L221.88 215.52L221.8 219.63L221.88 223.74L222.13 227.82L222.55 231.84L223.12 235.82L223.85 239.75L224.74 243.62L225.77 247.43L226.95 251.18L228.28 254.86L229.74 258.48L231.35 262.03L233.08 265.5L234.95 268.89L236.95 272.21L239.07 275.44L241.31 278.58L243.67 281.63L246.14 284.59L248.72 287.45L251.41 290.21L254.21 292.87L257.11 295.42L260.11 297.86L263.2 300.19L266.38 302.4L269.65 304.49L273.01 306.46L276.45 308.3L279.96 310.02L283.56 311.6L287.22 313.05L290.95 314.36L294.75 315.52L298.62 316.54L302.54 317.42L306.51 318.14L310.54 318.7L314.62 319.11L318.75 319.36L322.92 319.44L327.08 319.36L331.21 319.11L335.29 318.7L339.32 318.14L343.29 317.42L347.22 316.54L351.08 315.52L354.88 314.36L358.61 313.05L362.28 311.6L365.87 310.02L369.39 308.3L372.82 306.46L376.18 304.49L379.45 302.4L382.63 300.19L385.73 297.86L388.72 295.42L391.62 292.87L394.42 290.21L397.11 287.45L399.69 284.59L402.17 281.63L404.52 278.58L406.76 275.44L408.88 272.21L410.88 268.89L412.75 265.5L414.48 262.03L416.09 258.48L417.55 254.86L418.88 251.18L420.06 247.43L421.09 243.62L421.98 239.75L422.71 235.82L423.28 231.84L423.7 227.82L423.95 223.74L424.03 219.63L423.95 215.52L423.7 211.44L423.28 207.42L422.71 203.44L421.98 199.51L421.09 195.64L420.06 191.83L418.88 188.08L417.55 184.39L416.09 180.78L414.48 177.23L412.75 173.76L410.88 170.36L408.88 167.05L406.76 163.82L404.52 160.68L402.17 157.63L399.69 154.67L397.11 151.81L394.42 149.05L391.62 146.39L388.72 143.84L385.73 141.4L382.63 139.07L379.45 136.86L376.18 134.77L372.82 132.8L369.39 130.96L365.87 129.24L362.28 127.66L358.61 126.21L354.88 124.9L351.08 123.74L347.22 122.72L343.29 121.84L339.32 121.12L335.29 120.55L331.21 120.15L327.08 119.9L322.92 119.81L318.75 119.9L314.62 120.15Z" id="b1MgMEf3cl"></path></defs><g><g><g><use xlink:href="#b1MgMEf3cl" opacity="1" fill="#3609a1" fill-opacity="1"></use><g><use xlink:href="#b1MgMEf3cl" opacity="1" fill-opacity="0" stroke="#35d75d" stroke-width="23" stroke-opacity="1"></use></g></g></g></g></svg>